<?xml version="1.0" encoding="iso-8859-1"?>
<!-- Generator: Adobe Illustrator 19.0.0, SVG Export Plug-In . SVG Version: 6.00 Build 0)  -->
<svg version="1.1" id="Capa_1" xmlns="http://www.w3.org/2000/svg" xmlns:xlink="http://www.w3.org/1999/xlink" x="0px" y="0px"
	 viewBox="0 0 512 512" style="enable-background:new 0 0 512 512;" xml:space="preserve">
<g>
	<g>
		<path d="M458.259,83.342l-0.626-5.676l-4.242-3.823C400.545,26.225,330.445,0,256.002,0C181.557,0,111.455,26.226,58.609,73.847
			l-4.242,3.822l-0.626,5.676C47.941,135.907,45,171.895,45,190.311c0,138.207,79.964,263.102,203.816,318.55L256,512l7.184-3.138
			C387.036,453.414,467,328.519,467,190.311C467,171.894,464.059,135.904,458.259,83.342z M429.072,92.4
			c3.638,33.436,6.069,60.025,7.199,78.6h-29.864c-1.17-25.928-3.862-67.668-6.115-99.942
			C410.373,77.473,419.996,84.591,429.072,92.4z M142.991,54.108C177.593,38.35,216.076,30,256.002,30
			c39.924,0,78.406,8.349,113.007,24.106c2.354,32.269,5.938,85.754,7.371,116.894H135.626
			C137.035,140.674,140.522,87.948,142.991,54.108z M311.002,256c0,30.327-24.673,55-55,55c-30.327,0-55-24.673-55-55
			c0-30.327,24.673-55,55-55C286.329,201,311.002,225.673,311.002,256z M191.272,201c-10.796,12.685-17.945,28.558-19.789,46
			h-33.108c-1.81-15.054-2.906-30.42-3.251-46H191.272z M180.602,295.169c-8.077,9.379-17.197,17.824-27.111,25.175
			c-4.177-13.99-7.686-28.472-10.49-43.344h30.631C175.259,283.376,177.623,289.457,180.602,295.169z M112.881,342.5
			C88.501,296.752,75,244.662,75,190.311c0-16.422,2.738-50.208,7.928-97.908c9.076-7.81,18.699-14.928,28.781-21.343
			C108.718,113.941,105,172.933,105,190.311c0,51.456,7.838,101.113,22.185,146.026C122.517,338.616,117.743,340.674,112.881,342.5z
			 M128.451,368.623c3.005-1.226,5.974-2.536,8.914-3.911c5.483,13.706,11.61,26.854,18.33,39.355
			C145.792,392.912,136.69,381.066,128.451,368.623z M255.991,477.545c-39.456-28.153-71.304-73.083-92.404-127.638
			c13.052-8.741,25.077-19.039,35.72-30.644C214.36,332.767,234.235,341,256.002,341c45.19,0,82.242-35.451,84.841-80h30.869
			C357.364,354.874,314.136,435.885,255.991,477.545z M356.506,403.84c0.054-0.099,0.108-0.196,0.161-0.295
			c22.419-41.792,37.997-90.828,45.372-142.545h27.197C417.323,314.532,392.104,363.667,356.506,403.84z M434.456,231h-97.211
			c-3.438-11.151-9.125-21.319-16.512-30h116.086C436.489,211.097,435.699,221.106,434.456,231z"/>
	</g>
</g>
<g>
	<g>
		<rect x="241" y="241" width="30" height="30"/>
	</g>
</g>
<g>
</g>
<g>
</g>
<g>
</g>
<g>
</g>
<g>
</g>
<g>
</g>
<g>
</g>
<g>
</g>
<g>
</g>
<g>
</g>
<g>
</g>
<g>
</g>
<g>
</g>
<g>
</g>
<g>
</g>
</svg>
