<?xml version="1.0" encoding="iso-8859-1"?>
<!-- Generator: Adobe Illustrator 19.0.0, SVG Export Plug-In . SVG Version: 6.00 Build 0)  -->
<svg version="1.1" id="Capa_1" xmlns="http://www.w3.org/2000/svg" xmlns:xlink="http://www.w3.org/1999/xlink" x="0px" y="0px"
	 viewBox="0 0 490.667 490.667" style="enable-background:new 0 0 490.667 490.667;" xml:space="preserve">
<path style="fill:#CFD8DC;" d="M490.667,245.333c0,3.413,0,6.827-0.213,10.24c-5.394,127.419-107.461,229.486-234.88,234.88
	c-3.413,0.213-6.827,0.213-10.24,0.213s-7.253,0-10.88-0.213C107.54,484.712,5.955,383.126,0.213,256.213
	C0,252.587,0,248.96,0,245.333c0-3.627,0-7.04,0.213-10.453C5.695,107.535,107.743,5.579,235.093,0.213
	C238.507,0,241.92,0,245.333,0c3.84,0,7.467,0,11.093,0.213c126.765,5.81,228.217,107.262,234.027,234.027
	C490.667,237.867,490.667,241.493,490.667,245.333z"/>
<g>
	<path style="fill:#F44336;" d="M490.667,245.333c0,3.413,0,6.827-0.213,10.24c-3.413,0.213-6.613,0.213-9.813,0.213
		c-10.921-0.038-21.826-0.822-32.64-2.347v13.227c0,5.891-4.776,10.667-10.667,10.667s-10.667-4.776-10.667-10.667v-16.853
		c-18.564-4.232-36.597-10.529-53.76-18.773l-11.733,19.84c-2.005,3.138-5.45,5.061-9.173,5.12
		c-1.953,0.036-3.876-0.482-5.547-1.493c-4.981-3.125-6.586-9.638-3.627-14.72l11.307-18.773
		c-14.165-8.562-27.456-18.494-39.68-29.653l-18.987,18.773c-3.922,4.124-10.444,4.288-14.567,0.366
		c-0.125-0.119-0.247-0.241-0.366-0.366c-4.124-3.922-4.288-10.444-0.366-14.567c0.119-0.125,0.241-0.247,0.366-0.366l18.987-18.987
		c-11.294-12.216-21.368-25.506-30.08-39.68l-18.56,11.307c-1.671,1.011-3.594,1.529-5.547,1.493
		c-3.723-0.059-7.169-1.982-9.173-5.12c-2.959-5.082-1.355-11.595,3.627-14.72l19.84-11.947
		C251.513,100.425,245.29,82.47,241.067,64H224c-5.891,0-10.667-4.776-10.667-10.667S218.109,42.667,224,42.667h13.227
		c-1.885-14.068-2.599-28.268-2.133-42.453C238.507,0,241.92,0,245.333,0c3.84,0,7.467,0,11.093,0.213
		c-0.614,14.194,0.172,28.414,2.347,42.453h18.56c5.891,0,10.667,4.776,10.667,10.667S283.224,64,277.333,64H263.04
		c3.563,14.678,8.565,28.97,14.933,42.667l15.147-9.173c5.066-3.063,11.657-1.44,14.72,3.627c3.063,5.066,1.44,11.657-3.627,14.72
		l-16.427,9.813c7.692,12.66,16.625,24.523,26.667,35.413l8.747-8.533c4.082-4.165,10.768-4.232,14.933-0.15
		c4.165,4.082,4.232,10.768,0.15,14.933c-0.049,0.05-0.099,0.1-0.15,0.15l-8.533,8.747c10.945,9.977,22.801,18.905,35.413,26.667
		l9.813-16.427c3.063-5.066,9.654-6.69,14.72-3.627c5.066,3.063,6.69,9.654,3.627,14.72L384,212.693
		c13.697,6.367,27.988,11.369,42.667,14.933v-14.293c0-5.891,4.776-10.667,10.667-10.667S448,207.442,448,213.333v18.773
		c14.057,1.997,28.267,2.711,42.453,2.133C490.667,237.867,490.667,241.493,490.667,245.333z"/>
	<path style="fill:#F44336;" d="M277.333,437.333c0,5.891-4.776,10.667-10.667,10.667h-13.013
		c1.819,14.073,2.462,28.273,1.92,42.453c-3.413,0.213-6.827,0.213-10.24,0.213s-7.253,0-10.88-0.213
		c0.578-14.187-0.136-28.396-2.133-42.453h-18.987c-5.891,0-10.667-4.776-10.667-10.667s4.776-10.667,10.667-10.667h14.72
		c-3.613-14.72-8.761-29.021-15.36-42.667l-15.147,9.173c-1.671,1.011-3.594,1.529-5.547,1.493c-3.723-0.059-7.169-1.982-9.173-5.12
		c-2.959-5.082-1.355-11.595,3.627-14.72l16.213-9.6c-7.391-12.523-15.963-24.31-25.6-35.2l-0.64-0.64l-8.96,8.747
		c-3.922,4.124-10.444,4.288-14.567,0.366c-0.125-0.119-0.247-0.241-0.366-0.366c-4.124-3.922-4.288-10.444-0.366-14.567
		c0.119-0.125,0.241-0.247,0.366-0.366l8.747-8.747c-10.948-10.097-22.966-18.967-35.84-26.453l-9.6,16.213
		c-2.005,3.138-5.45,5.061-9.173,5.12c-1.953,0.036-3.876-0.482-5.547-1.493c-4.981-3.125-6.586-9.638-3.627-14.72l9.173-15.147
		C93.021,271.375,78.72,266.227,64,262.613v14.72C64,283.224,59.224,288,53.333,288s-10.667-4.776-10.667-10.667v-18.987
		c-14.047-2.103-28.267-2.818-42.453-2.133C0,252.587,0,248.96,0,245.333c0-3.627,0-7.04,0.213-10.453
		c14.18-0.648,28.39-0.006,42.453,1.92V224c0-5.891,4.776-10.667,10.667-10.667S64,218.109,64,224v16.853
		c18.594,4.028,36.641,10.259,53.76,18.56l11.733-19.627c3.063-5.066,9.654-6.69,14.72-3.627c5.066,3.063,6.69,9.654,3.627,14.72
		l-11.307,18.773c14.165,8.562,27.456,18.494,39.68,29.653l18.987-18.773c4.166-4.082,10.851-4.014,14.933,0.151
		c4.024,4.106,4.024,10.676,0,14.782L191.36,314.24c0.55,0.442,1.051,0.943,1.493,1.493c10.622,11.847,20.054,24.708,28.16,38.4
		l18.773-11.307c5.066-3.063,11.657-1.44,14.72,3.627c3.063,5.066,1.44,11.657-3.627,14.72l0,0l-19.84,11.733
		c8.336,17.125,14.637,35.168,18.773,53.76h16.853C272.558,426.667,277.333,431.442,277.333,437.333z"/>
</g>
<g>
</g>
<g>
</g>
<g>
</g>
<g>
</g>
<g>
</g>
<g>
</g>
<g>
</g>
<g>
</g>
<g>
</g>
<g>
</g>
<g>
</g>
<g>
</g>
<g>
</g>
<g>
</g>
<g>
</g>
</svg>
