<?xml version="1.0" encoding="iso-8859-1"?>
<!-- Generator: Adobe Illustrator 19.0.0, SVG Export Plug-In . SVG Version: 6.00 Build 0)  -->
<svg version="1.1" id="Capa_1" xmlns="http://www.w3.org/2000/svg" xmlns:xlink="http://www.w3.org/1999/xlink" x="0px" y="0px"
	 viewBox="0 0 512 512" style="enable-background:new 0 0 512 512;" xml:space="preserve">
<path style="fill:#FEA832;" d="M511.099,271c-2.999,53.699-22.798,103.9-54,143.5c-2.1,2.701-33.9-24.901-36-22.5
	c-4.499,5.4,21,40.499,16.201,45.3c-42.9,42.9-102.1,70.199-166.3,73.799c-5.099,0-9.901-29.099-15-29.099
	c-5.099,0-9.901,29.099-15,29.099c-64.2-3.6-123.401-30.899-166.3-73.799c-3-3.001,24.3-36,21.3-39.3
	c-3.6-4.2-37.5,21.299-41.1,16.5c-31.201-39.6-51-89.801-54-143.5c0-5.099,29.099-9.901,29.099-15s-29.099-9.901-29.099-15
	c2.999-53.699,22.798-103.9,54-143.5c3.9-5.099,37.8,20.099,41.999,15.601c2.401-2.701-24.898-35.7-22.199-38.401
	c42.899-42.9,102.1-70.199,166.3-73.799C246.1,0.901,250.902,30,256,30c5.099,0,9.901-29.099,15-29.099
	c64.2,3.6,123.401,30.899,166.3,73.799c2.699,2.701-24.6,35.7-22.2,38.401c4.199,4.799,38.099-20.7,41.999-15.601
	c31.201,39.6,51,89.801,54,143.5c0,5.099-29.099,9.901-29.099,15S511.099,265.901,511.099,271z"/>
<path style="fill:#FE9923;" d="M511.099,271c-2.999,53.699-22.798,103.9-54,143.5c-2.1,2.701-33.9-24.901-36-22.5
	c-4.499,5.4,21,40.499,16.201,45.3c-42.9,42.9-102.1,70.199-166.3,73.799c-5.099,0-9.901-29.099-15-29.099V30
	c5.099,0,9.901-29.099,15-29.099c64.2,3.6,123.401,30.899,166.3,73.799c2.699,2.701-24.6,35.7-22.2,38.401
	c4.199,4.799,38.099-20.7,41.999-15.601c31.201,39.6,51,89.801,54,143.5c0,5.099-29.099,9.901-29.099,15
	S511.099,265.901,511.099,271z"/>
<path style="fill:#BF6015;" d="M511.099,271H392.901c3.6,55.499,27.599,106.3,64.199,143.5c-6.299,8.101-12.9,15.601-19.799,22.8
	c-42.9-42.9-70.8-101.8-74.399-166.3H271v240.099c-5.099,0.3-9.901,0.901-15,0.901c-5.099,0-9.901-0.601-15-0.901V271H149.1
	c-3.6,64.501-31.5,123.401-74.399,166.3c-6.899-7.2-13.5-14.7-19.799-22.8c36.599-37.2,60.599-88.001,64.199-143.5H0.902
	c-0.3-5.099-0.901-9.901-0.901-15s0.601-9.901,0.901-15H119.1c-3.6-55.499-27.599-106.3-64.199-143.5
	c6.299-8.101,12.9-15.601,19.799-22.8c42.9,42.9,70.8,101.8,74.399,166.3h91.902V0.901C246.1,0.601,250.902,0,256,0
	c5.099,0,9.901,0.601,15,0.901V241h91.901c3.6-64.501,31.5-123.401,74.399-166.3c6.899,7.2,13.5,14.7,19.799,22.8
	C420.5,134.7,396.5,185.501,392.901,241h118.198c0.3,5.099,0.901,9.901,0.901,15S511.399,265.901,511.099,271z"/>
<path style="fill:#994C10;" d="M511.099,271H392.901c3.6,55.499,27.599,106.3,64.199,143.5c-6.299,8.101-12.9,15.601-19.799,22.8
	c-42.9-42.9-70.8-101.8-74.399-166.3H271v240.099c-5.099,0.3-9.901,0.901-15,0.901V0c5.099,0,9.901,0.601,15,0.901V241h91.901
	c3.6-64.501,31.5-123.401,74.399-166.3c6.899,7.2,13.5,14.7,19.799,22.8C420.5,134.7,396.5,185.501,392.901,241h118.198
	c0.3,5.099,0.901,9.901,0.901,15S511.399,265.901,511.099,271z"/>
<g>
</g>
<g>
</g>
<g>
</g>
<g>
</g>
<g>
</g>
<g>
</g>
<g>
</g>
<g>
</g>
<g>
</g>
<g>
</g>
<g>
</g>
<g>
</g>
<g>
</g>
<g>
</g>
<g>
</g>
</svg>
