<svg height="512pt" viewBox="-4 0 512 512.0267" width="512pt" xmlns="http://www.w3.org/2000/svg"><path d="m503.335938 416.570312c0 52.761719-112.640626 95.457032-251.660157 95.457032-139.023437 0-251.6640622-42.695313-251.6640622-95.457032 0-26.296874 27.9453122-50.160156 73.3320312-67.429687 6.867188 9.992187 14.589844 19.371094 23.082031 28.03125 1.5625 1.648437 3.125 3.210937 4.773438 4.683594 3.125 3.125 6.335937 5.988281 9.632812 8.765625.171875.175781.257813.347656.433594.433594 2.949219 2.519531 5.898437 4.949218 9.023437 7.203124.710938.605469 1.464844 1.15625 2.257813 1.648438 3.125 2.429688 6.335937 4.6875 9.632813 6.855469.472656.324219.964843.613281 1.472656.867187 2.605468 1.824219 5.207031 3.386719 7.898437 4.949219 2.167969 1.386719 4.425781 2.601563 6.683594 3.816406 3.035156 1.738281 6.160156 3.296875 9.371094 4.773438 2.515625 1.300781 5.207031 2.429687 7.808593 3.644531 3.992188 1.734375 8.070313 3.296875 12.152344 4.773438 2.253906.78125 4.425782 1.5625 6.679688 2.257812 3.125 1.039062 6.25 1.996094 9.460937 2.863281.183594.109375.390625.167969.605469.171875.070312.066406.164062.097656.261719.085938 2.082031.609375 4.25 1.128906 6.421875 1.5625.148437.175781.386718.242187.605468.175781 2.167969.613281 4.371094 1.105469 6.597657 1.472656.816406.257813 1.660156.433594 2.515625.523438 2.34375.433593 4.6875.867187 7.117187 1.214843 6.664063 1.101563 13.386719 1.855469 20.132813 2.253907 1.300781.085937 2.601562.175781 3.816406.175781 3.296875.171875 6.59375.257812 9.894531.257812 3.296875 0 6.59375-.085937 9.890625-.257812 1.214844 0 2.515625-.089844 3.820313-.175781 6.746093-.398438 13.464843-1.152344 20.132812-2.253907 2.429688-.347656 4.773438-.78125 7.113281-1.214843.855469-.089844 1.699219-.265625 2.519532-.523438 2.222656-.367187 4.425781-.859375 6.59375-1.472656.21875.066406.457031 0 .609375-.175781 2.167969-.433594 4.335937-.953125 6.417969-1.5625.097656.011718.191406-.019532.261718-.085938.214844-.003906.421875-.0625.609375-.171875 3.210938-.867187 6.332031-1.824219 9.457031-2.863281 2.257813-.695312 4.425782-1.476562 6.683594-2.257812 4.078125-1.476563 8.15625-3.039063 12.148438-4.773438 2.601562-1.214844 5.292968-2.34375 7.808594-3.644531 3.210937-1.476563 6.335937-3.035157 9.375-4.773438 2.253906-1.214843 4.511718-2.429687 6.679687-3.816406 2.691406-1.5625 5.292969-3.125 7.898437-4.949219.507813-.253906 1.003907-.542968 1.476563-.867187 3.296875-2.167969 6.507813-4.425781 9.628906-6.855469.792969-.492188 1.546875-1.042969 2.257813-1.648438 3.125-2.253906 6.074218-4.683593 9.023437-7.203124.175781-.085938.261719-.257813.4375-.433594 3.296875-2.777344 6.507813-5.640625 9.628907-8.765625 1.652343-1.472657 3.210937-3.035157 4.773437-4.683594 8.492187-8.660156 16.214844-18.039063 23.085937-28.03125 45.382813 17.269531 73.328126 41.132813 73.328126 67.429687zm0 0" fill="#71c285"/><path d="m442.589844 416.570312c0-33.550781-85.476563-60.746093-190.914063-60.746093-105.441406 0-190.917969 27.195312-190.917969 60.746093 0 33.546876 85.476563 60.746094 190.917969 60.746094 105.4375 0 190.914063-27.199218 190.914063-60.746094zm0 0" fill="#4c8056"/><path d="m459.597656 287.527344c-.695312 2.257812-1.386718 4.511718-2.167968 6.769531-1.390626 4.511719-3.039063 8.9375-4.859376 13.277344-.867187 2.167969-1.824218 4.25-2.777343 6.421875-.957031 2.167968-1.910157 4.25-2.949219 6.335937-1.5625 3.382813-3.300781 6.679688-5.121094 9.976563-1.128906 2.085937-2.34375 4.167968-3.558594 6.25-2.515624 4.25-5.207031 8.503906-8.15625 12.582031-6.871093 9.992187-14.59375 19.371094-23.085937 28.03125-1.5625 1.5625-3.121094 3.125-4.773437 4.683594h-63.695313l-43.390625-78.101563 43.390625-78.101562h86.78125zm0 0" fill="#fff"/><path d="m402.148438 381.855469c-3.121094 3.039062-6.332032 5.988281-9.628907 8.765625-.175781.175781-.261719.347656-.4375.433594-2.949219 2.519531-5.898437 4.949218-9.023437 7.203124-.710938.605469-1.464844 1.15625-2.257813 1.648438-3.121093 2.429688-6.332031 4.6875-9.628906 6.855469-.472656.324219-.96875.613281-1.476563.867187-2.539062 1.792969-5.175781 3.445313-7.898437 4.949219-2.167969 1.386719-4.425781 2.601563-6.679687 3.816406-3.125 1.648438-6.25 3.296875-9.375 4.773438-2.601563 1.300781-5.117188 2.429687-7.808594 3.644531-3.992188 1.734375-8.070313 3.296875-12.148438 4.773438-2.171875.867187-4.425781 1.5625-6.683594 2.257812-3.125 1.039062-6.246093 1.996094-9.457031 2.863281-.1875.109375-.394531.167969-.609375.171875l29.417969-53.023437zm0 0" fill="#35495e"/><path d="m194.3125 434.878906c-.214844-.003906-.421875-.0625-.605469-.171875-3.210937-.867187-6.335937-1.824219-9.460937-2.863281-2.253906-.695312-4.511719-1.390625-6.679688-2.257812-4.082031-1.476563-8.160156-3.039063-12.152344-4.773438-2.6875-1.214844-5.207031-2.34375-7.808593-3.644531-3.125-1.476563-6.25-3.125-9.371094-4.773438-2.257813-1.214843-4.515625-2.429687-6.683594-3.816406-2.71875-1.503906-5.355469-3.15625-7.898437-4.949219-.507813-.253906-1-.542968-1.472656-.867187-3.296876-2.167969-6.507813-4.425781-9.632813-6.855469-.792969-.492188-1.546875-1.042969-2.257813-1.648438-3.125-2.253906-6.074218-4.683593-9.023437-7.203124-.175781-.085938-.261719-.257813-.433594-.433594-3.296875-2.777344-6.507812-5.726563-9.632812-8.765625h63.695312zm0 0" fill="#35495e"/><path d="m208.285156 303.753906-43.390625 78.101563h-63.695312c-1.648438-1.558594-3.210938-3.121094-4.773438-4.683594-8.492187-8.660156-16.214843-18.039063-23.082031-28.03125-2.953125-4.078125-5.640625-8.332031-8.160156-12.582031-1.214844-2.082032-2.429688-4.164063-3.558594-6.25-1.820312-3.296875-3.554688-6.59375-5.117188-9.976563-1.042968-2.085937-1.996093-4.167969-2.953124-6.335937-.953126-2.171875-1.90625-4.253906-2.773438-6.421875-1.824219-4.339844-3.472656-8.765625-4.863281-13.277344-.777344-2.257813-1.472657-4.511719-2.167969-6.769531l34.363281-61.875h86.78125zm0 0" fill="#fff"/><path d="m78.113281 225.652344-34.363281 61.875c-12.03125-40.371094-12.03125-83.375 0-123.746094zm0 0" fill="#35495e"/><path d="m208.285156 147.550781-43.390625 78.101563h-86.78125l-34.363281-61.871094c10.621094-35.90625 30.421875-68.417969 57.449219-94.332031h63.695312zm0 0" fill="#fff"/><path d="m338.453125 225.652344-43.390625 78.101562h-86.777344l-43.390625-78.101562 43.390625-78.101563h86.777344zm0 0" fill="#35495e"/><path d="m338.453125 381.855469-29.417969 53.023437c-.070312.066406-.164062.097656-.261718.085938-2.167969.609375-4.25 1.128906-6.417969 1.5625-.152344.175781-.390625.242187-.609375.175781-2.167969.605469-4.339844 1.039063-6.59375 1.472656-.820313.257813-1.664063.433594-2.519532.523438-2.339843.519531-4.769531.867187-7.113281 1.214843-6.667969 1.101563-13.386719 1.855469-20.132812 2.253907-1.214844.085937-2.519531.175781-3.820313.175781-3.296875.171875-6.59375.257812-9.890625.257812-3.300781 0-6.597656-.085937-9.894531-.257812-1.300781 0-2.601562-.089844-3.816406-.175781-6.746094-.398438-13.46875-1.152344-20.132813-2.253907-2.34375-.347656-4.773437-.695312-7.117187-1.214843-.855469-.089844-1.699219-.265625-2.515625-.523438-2.257813-.433593-4.425781-.867187-6.597657-1.472656-.21875.066406-.457031 0-.605468-.175781-2.171875-.433594-4.253906-.953125-6.421875-1.5625-.097657.011718-.191407-.019532-.261719-.085938l-29.417969-53.023437 43.390625-78.101563h86.777344zm0 0" fill="#fff"/><path d="m459.597656 163.78125-34.363281 61.871094h-86.78125l-43.390625-78.101563 43.390625-78.101562h63.695313c27.027343 25.914062 46.828124 58.425781 57.449218 94.332031zm0 0" fill="#fff"/><path d="m402.148438 69.449219h-63.695313l-29.417969-53.019531c35.023438 9.511718 67.0625 27.753906 93.113282 53.019531zm0 0" fill="#35495e"/><path d="m194.3125 16.429688-29.417969 53.019531h-63.695312c26.054687-25.265625 58.089843-43.507813 93.113281-53.019531zm0 0" fill="#35495e"/><path d="m338.453125 69.449219-43.390625 78.101562h-86.777344l-43.390625-78.101562 29.417969-53.019531c37.546875-10.300782 77.175781-10.300782 114.722656 0zm0 0" fill="#fff"/><path d="m468.625 225.652344c.03125 20.957031-3.007812 41.804687-9.027344 61.875l-34.363281-61.875 34.363281-61.871094c6.019532 20.070312 9.058594 40.917969 9.027344 61.871094zm0 0" fill="#35495e"/><path d="m477.128906 217.148438v-.9375c-.085937-2.003907-.183594-4.007813-.339844-5.820313-.183593-3.1875-.449218-6.386719-.867187-10.050781-.347656-3.054688-.710937-6.167969-1.1875-8.972656-.46875-3.273438-1.035156-6.636719-1.738281-9.632813-1.296875-6.863281-2.976563-13.648437-5.023438-20.324219l-.042968-.15625c-.730469-2.351562-1.449219-4.695312-2.167969-6.777344-1.46875-4.734374-3.171875-9.390624-5.105469-13.953124-.738281-1.824219-1.519531-3.59375-2.308594-5.390626l-.582031-1.300781c-1.011719-2.300781-2.019531-4.503906-3.019531-6.480469-1.648438-3.570312-3.46875-7.046874-5.371094-10.484374-1.171875-2.152344-2.421875-4.339844-3.738281-6.570313-2.457031-4.070313-4.992188-8.148437-7.664063-11.976563-1.796875-2.601562-3.601562-5.144531-5.46875-7.617187-5.871094-7.949219-12.304687-15.46875-19.246094-22.503906-1.734374-1.828125-3.472656-3.566407-5.015624-4.9375-3.140626-3.0625-6.378907-6.074219-9.691407-8.851563-.253906-.25-.53125-.492187-.808593-.726562-3.125-2.664063-6.265626-5.207032-9.761719-7.8125-.714844-.582032-1.464844-1.121094-2.238281-1.621094-3.179688-2.449219-6.433594-4.738281-9.710938-6.890625-.582031-.402344-1.183594-.769531-1.808594-1.101563-2.484375-1.746093-5.0625-3.351562-7.722656-4.816406-2.265625-1.457031-4.632812-2.742187-7.546875-4.339844-3.160156-1.664062-6.3125-3.324218-9.304687-4.738281-2.480469-1.242187-4.894532-2.332031-8.226563-3.84375-4.164063-1.804687-8.417969-3.429687-12.382813-4.859375-2.394531-.964844-4.878906-1.734375-7.160156-2.429687-3.097656-1.03125-6.1875-1.988281-9.355468-2.855469-.5-.1875-1.011719-.335938-1.535157-.441406-2.222656-.617188-4.339843-1.15625-6.570312-1.597656l-.328125-.070313c-2.113282-.59375-4.257813-1.078125-6.421875-1.449219-1.171875-.359375-2.371094-.621094-3.585938-.78125-2.238281-.476562-4.5625-.867187-7.070312-1.195312-6.964844-1.15625-13.980469-1.945313-21.027344-2.363282-1.40625-.09375-2.925781-.179687-3.695313-.164062-2.320312-.191406-4.539062-.191406-6.277343-.183594-2.683594-.1718748-5.375-.1718748-8.058594 0-2.328125 0-4.566406 0-6.164063.175782-1.5 0-3.019531.09375-4.335937.191406-7.15625.417968-14.285156 1.214844-21.359375 2.386718-2.230469.328126-4.527344.675782-6.769531 1.152344-.941407.097656-1.871094.289063-2.773438.574219-2.492187.476563-4.894531.972656-7.292969 1.640625l-.300781.078125c-2.101562.425781-4.148437.925781-6.25 1.507813-.484375.097656-.957031.234374-1.414062.417968-3.324219.867188-6.558594 1.882813-9.546875 2.898438-2.496094.761718-4.980469 1.535156-7.097656 2.394531-4.242188 1.535156-8.496094 3.160156-13.449219 5.320313-2.542969 1.152343-4.957031 2.246093-7.273438 3.410156-3.160156 1.492187-6.308593 3.148437-10.03125 5.109375-2.351562 1.277343-4.722656 2.605469-6.492187 3.714843-2.824219 1.566407-5.566406 3.273438-8.21875 5.121094-.59375.320313-1.175782.671875-1.734375 1.050782-3.359375 2.203124-6.613281 4.496093-9.789063 6.941406-.839844.550781-1.652344 1.144531-2.429687 1.777344-3.304688 2.398437-6.449219 4.972656-9.546875 7.636718-.269532.234375-.535156.46875-.78125.714844-3.78125 3.191406-6.898438 6.074219-9.621094 8.773438-1.738281 1.621093-3.332031 3.242187-4.980469 4.894531-6.972656 7.054687-13.4375 14.59375-19.34375 22.5625-1.902343 2.523437-3.707031 5.050781-5.460937 7.609375-2.714844 3.886718-5.25 7.964844-7.808594 12.148437-1.257812 2.152344-2.507812 4.339844-3.652344 6.414063-1.929687 3.46875-3.75 6.941406-5.296875 10.300781-1.101562 2.203125-2.105469 4.40625-3.121093 6.707031l-.582032 1.300782c-.789062 1.796874-1.570312 3.566406-2.257812 5.269531-1.875 4.382812-3.515625 8.867187-4.917969 13.425781-.941406 2.417969-1.738281 4.890625-2.398437 7.402344l-.050782.179687c-2.019531 6.585938-3.675781 13.277344-4.964844 20.046875-.753906 3.273438-1.316406 6.636719-1.734374 9.675782-.417969 3.039062-.867188 6.152343-1.285157 9.667968-.371093 3.203125-.640625 6.402344-.824219 9.398438-.15625 2.003906-.25 4.007812-.335937 6.011718v.9375c-.089844 2.855469-.175781 5.632813-.175781 8.503907 0 2.875.085937 5.652343.175781 8.507812v.960938c.09375 1.996093.179687 3.992187.335937 5.796875.183594 3.183594.453126 6.386718.867188 10.050781.347656 3.054687.714844 6.167969 1.191406 8.972656.46875 3.269531 1.03125 6.636719 1.734375 9.632813 1.292969 6.878906 2.964844 13.679687 5.007813 20.375v.15625c.730468 2.351562 1.449218 4.695312 2.167968 6.777344 1.46875 4.734374 3.171876 9.390624 5.105469 13.953124.734375 1.824219 1.515625 3.59375 2.308594 5.390626l.578125 1.300781c1.015625 2.300781 2.023438 4.503906 3.019531 6.484375 1.652344 3.566406 3.472657 7.042968 5.375 10.480468 1.171875 2.152344 2.417969 4.339844 3.703125 6.507813 2.976563 5.027344 5.78125 9.363281 8.480469 13.078125 7.121094 10.367188 15.128906 20.097656 23.933594 29.082031 1.734375 1.828125 3.46875 3.566407 5.015625 4.9375 3.148437 3.0625 6.378906 6.074219 9.703125 8.851563.25.253906.519531.5.796875.726562 3.125 2.664063 6.265625 5.207032 9.761718 7.8125.714844.578125 1.460938 1.121094 2.230469 1.621094 3.183594 2.449219 6.4375 4.738281 9.71875 6.890625.589844.402344 1.195313.773437 1.824219 1.109375 2.476562 1.746094 5.050781 3.347656 7.707031 4.808594 2.261719 1.457031 4.632813 2.742187 7.546875 4.339844 3.160156 1.675781 6.320313 3.332031 9.296875 4.738281 2.488281 1.25 4.910157 2.34375 8.234375 3.851562 4.164063 1.804688 8.417969 3.429688 12.382813 4.859375 2.394531.964844 4.878906 1.738282 7.160156 2.429688 3.097656 1.035156 6.1875 1.988281 9.355469 2.855468.496094.191407 1.011718.335938 1.535156.445313 2.222656.613281 4.339844 1.152344 6.570312 1.59375l.300782.078125c2.125.589844 4.28125 1.070312 6.457031 1.433594 1.171875.359375 2.371094.621094 3.585937.78125 2.238282.476562 4.5625.867187 7.070313 1.195312 6.953125 1.15625 13.960937 1.941406 20.992187 2.363282 1.398438.09375 2.8125.136718 3.957032.171874 3.472656.191407 6.941406.277344 10.355468.277344 3.410157 0 6.941407-.085937 9.890626-.257812 1.5 0 3.019531-.097656 4.339843-.191406 7.148438-.429688 14.265625-1.230469 21.328125-2.40625 2.230469-.328126 4.53125-.675782 6.769532-1.152344.933593-.097656 1.855468-.289063 2.753906-.574219 2.488281-.476563 4.890625-.972656 7.289062-1.640625l.300782-.078125c2.101562-.421875 4.148437-.925781 6.25-1.507813.484374-.09375.957031-.234374 1.414062-.417968 3.324219-.867188 6.5625-1.882813 9.546875-2.898438 2.5-.761718 4.980469-1.535156 7.097656-2.394531 4.242188-1.535156 8.496094-3.160156 13.433594-5.3125 2.550781-1.160156 4.972656-2.253906 7.28125-3.417969 3.15625-1.492187 6.316406-3.148437 10.039063-5.109375 2.351562-1.277343 4.722656-2.605469 6.492187-3.714843 2.820313-1.5625 5.558594-3.269532 8.199219-5.113282.597656-.320312 1.175781-.675781 1.738281-1.058594 3.355469-2.203124 6.609375-4.492187 9.796875-6.941406.835938-.53125 1.644531-1.113281 2.421875-1.734375 3.304687-2.394531 6.445313-4.972656 9.542969-7.636719.269531-.234374.539062-.46875.78125-.710937 3.324218-2.8125 6.5625-5.789063 9.441406-8.609375.113281-.097656.210938-.207031.3125-.3125l.070312-.0625c1.683594-1.527344 3.304688-3.121094 4.808594-4.710938 8.792969-8.964843 16.796875-18.675781 23.914063-29.019531 2.820312-3.886719 5.625-8.226562 8.628906-13.304687 1.257813-2.148438 2.507813-4.335938 3.652344-6.410156 1.925781-3.472657 3.75-6.945313 5.292969-10.300782 1.101562-2.207031 2.109374-4.410156 3.125-6.710937l.582031-1.300781c.789062-1.796876 1.570312-3.566407 2.253906-5.265626 1.921875-4.515624 3.609375-9.121093 5.058594-13.808593.816406-2.351563 1.539062-4.695313 2.257812-7.019531l.050781-.183594c2.023438-6.585938 3.679688-13.277344 4.964844-20.042969.753906-3.273437 1.320313-6.640625 1.734375-9.675781.417969-3.039063.871094-6.15625 1.285157-9.667969.375-3.203125.644531-6.40625.816406-9.398437.164062-1.996094.25-3.992188.347656-5.988282 0-.042968 0-.921875 0-.964844.085938-2.855468.171875-5.632812.171875-8.503906s.105469-5.71875.019531-8.574218zm-41.96875 8.503906 21.21875-38.179688c.425782 2.148438.867188 4.335938 1.179688 6.59375.453125 2.722656.765625 5.527344 1.136718 8.730469.332032 2.871094.582032 5.753906.753907 8.824219.15625 1.789062.234375 3.574218.332031 6.074218.085938 2.691407.164062 5.292969.164062 7.992188s-.078124 5.304688-.183593 8.679688c-.078125 1.785156-.164063 3.574218-.320313 5.554687-.164062 2.871094-.414062 5.753906-.796875 9.09375-.320312 2.734375-.632812 5.535156-1.128906 8.496094-.296875 2.03125-.71875 4.191406-1.144531 6.351562zm-16.609375-124.613282c1.738281 2.332032 3.421875 4.667969 5.121094 7.140626 2.5 3.574218 4.816406 7.308593 6.996094 10.925781 1.167969 2.023437 2.339843 4.035156 3.46875 6.074219 1.734375 3.117187 3.359375 6.230468 4.957031 9.660156.980469 1.960937 1.875 3.921875 2.765625 5.960937l.589844 1.328125c.714843 1.613282 1.425781 3.191406 2.136719 4.945313 1.8125 4.339843 3.304687 8.425781 4.652343 12.75.335938.996093.640625 2.011719.960938 3.011719l-30.078125 54.140624h-76.554688l-21.695312-39.050781-16.878906-30.375 16.871093-30.371093 21.695313-39.050782h55.042968c.703126.695313 1.398438 1.320313 2.144532 2.109375 6.417968 6.503907 12.371094 13.453125 17.804687 20.800781zm-128.597656 194.039063h-76.558594l-21.695312-39.050781-16.875-30.375 16.867187-30.371094 21.695313-39.050781h76.558593l21.695313 39.050781 16.886719 30.371094-16.871094 30.375zm45.03125-260.339844c2.332031 1.058594 4.554687 2.046875 7 3.28125 2.945313 1.386719 5.867187 2.933594 9.226563 4.703125 1.96875 1.066406 3.964843 2.125 6.371093 3.644532 2.441407 1.351562 4.808594 2.839843 7.089844 4.453124.34375.242188 1.308594.824219 1.691406 1.015626 3.105469 2.039062 6.125 4.164062 9.078125 6.453124.355469.269532 1.246094.949219 1.636719 1.164063.113281.085937.738281.582031.871094.660156.292969.214844.5625.476563.867187.695313h-35.25l-16.195312-29.21875c2.457031.9375 4.957031 1.933594 7.613281 3.148437zm-131.039063-11.777343c1.945313-.546876 3.878907-.917969 6.726563-1.515626.28125-.089843.574219-.15625.867187-.199218.351563-.035156.703126-.089844 1.050782-.167969 1.976562-.441406 4.027344-.734375 6.679687-1.125 6.382813-1.058594 12.816407-1.78125 19.273438-2.164063 1.027343-.066406 2.117187-.144531 3.941406-.179687s3.601563-.140625 6.074219-.164063c1.023437-.0625 2.136718-.0625 3.117187-.0625s2.097657 0 3.730469.085938c1.804688 0 3.601562 0 6.160156.175781 1.101563 0 2.195313.078125 3.265625.15625 6.667969.398438 13.3125 1.152344 19.90625 2.253907 1.976563.289062 4.027344.582031 6.003907 1.023437.347656.078125.699218.132813 1.050781.167969.585937.097656 1.164062.234375 1.734375.40625 2.023437.390625 3.957031.761718 5.902344 1.308594l.277343.070312c.324219.109375.652344.195312.988281.261719.867188.171875 1.738282.425781 2.605469.632812l25.226563 45.523438-7.011719 12.628906-31.5625 56.796875h-76.558594l-31.558593-56.808594-7.011719-12.617187 25.25-45.515625c.867187-.207032 1.738281-.460938 2.605469-.632813.335937-.0625.664062-.152343.988281-.261719zm-77.234374 36.023437c.390624-.214844.765624-.457031 1.121093-.730469 2.949219-2.289062 5.96875-4.414062 9.675781-6.820312.378907-.1875.746094-.40625 1.09375-.648438 2.441407-1.71875 4.976563-3.304687 7.59375-4.746094 1.898438-1.226562 3.894532-2.285156 6.28125-3.578124 2.941407-1.542969 5.867188-3.089844 8.972657-4.5625 2.28125-1.148438 4.503906-2.136719 7.386719-3.472657 2.261718-.980469 4.683593-1.855469 7.054687-2.769531l-16.105469 29.117188h-35.3125c.390625-.296876.738282-.582032 1.144532-.867188zm-72.496094 100.578125c1.25-4.042969 2.742187-8.121094 4.609375-12.59375.660156-1.628906 1.371093-3.207031 2.082031-4.824219l.589844-1.328125c.867187-2.039062 1.789062-4 2.882812-6.195312 1.484375-3.191406 3.113282-6.308594 4.867188-9.46875 1.09375-2.011719 2.265625-4.023438 3.367187-5.933594 2.246094-3.730469 4.566407-7.464844 7.105469-11.089844 1.660156-2.421875 3.324219-4.757812 5.105469-7.144531 5.421875-7.3125 11.351562-14.238281 17.746093-20.722656.683594-.683594 1.464844-1.429688 2.175782-2.132813h55.039062l21.691406 39.050782 16.878907 30.371093-16.867188 30.375-21.695312 39.050781h-76.566407l-30.128906-54.230468c.320313-.988282.667969-2.019532 1.117188-3.183594zm-7.246094 104.273438c-.425781-2.152344-.867188-4.339844-1.179688-6.59375-.449218-2.726563-.761718-5.527344-1.136718-8.730469-.328125-2.871094-.582032-5.753907-.753906-8.824219-.148438-1.738281-.234376-3.566406-.332032-6.074219-.085937-2.65625-.164062-5.261719-.164062-7.960937 0-2.699219.078125-5.300782.183594-8.675782.078124-1.796874.15625-3.585937.320312-5.570312.164062-2.875.417969-5.753906.796875-9.097656.324219-2.730469.636719-5.535156 1.128906-8.496094.296875-2.027344.722657-4.191406 1.144531-6.351562l21.210938 38.191406zm33.410156 80.203124c-2.5-3.472656-5.023437-7.351562-7.695312-11.871093-1.171875-2.003907-2.34375-4.019531-3.472656-6.074219-1.734376-3.117188-3.359376-6.230469-4.953126-9.660156-.980468-1.960938-1.875-3.921875-2.769531-5.960938l-.589843-1.328125c-.710938-1.613281-1.421876-3.195312-2.136719-4.945312-1.8125-4.339844-3.304688-8.425781-4.648438-12.75-.339843-.996094-.644531-2.011719-.964843-3.011719l30.078124-54.105469h76.558594l21.691406 39.050781 16.878907 30.371094-16.867188 30.375-21.695312 39.050782h-55.054688c-.695312-.695313-1.386719-1.320313-2.117187-2.082032-8.179688-8.355468-15.625-17.402344-22.242188-27.042968zm87.988282 72.574219c-2.328126-1.058593-4.546876-2.058593-7.023438-3.296875-2.941406-1.382812-5.863281-2.925781-9.214844-4.695312-1.96875-1.070313-3.964844-2.128906-6.367187-3.644532-2.441407-1.355468-4.804688-2.839843-7.082031-4.453124-.367188-.25-1.304688-.816407-1.738282-1.015626-3.105468-2.039062-6.125-4.164062-9.074218-6.457031-.339844-.257812-1.285157-.960937-1.660157-1.179687-.113281-.078125-.71875-.5625-.867187-.640625-.292969-.21875-.5625-.476563-.867188-.695313h35.277344l16.191406 29.191406c-2.367187-.945312-4.921875-1.941406-7.574218-3.113281zm131.035156 11.730469c-1.941406.546875-3.878906.921875-6.722656 1.519531-.285157.089844-.574219.15625-.871094.199219-.351563.035156-.703125.089844-1.046875.164062-1.980469.445313-4.027344.738282-6.683594 1.128907-6.382813 1.058593-12.816406 1.777343-19.273437 2.160156-1.023438.070313-2.117188.148437-3.6875.15625-6.433594.351563-12.882813.351563-19.316407 0-1.105469 0-2.199219-.078125-3.265625-.15625-6.671875-.398437-13.316406-1.152344-19.90625-2.253906-1.980468-.289063-4.027344-.582031-6.003906-1.023438-.347656-.078125-.699219-.132812-1.050781-.167969-.585938-.097656-1.167969-.234374-1.738281-.40625-2.019532-.390624-3.957032-.761718-5.898438-1.308593l-.277344-.070313c-.324218-.109375-.65625-.195312-.992187-.261718-.867188-.171876-1.734375-.425782-2.601563-.632813l-25.242187-45.535156 7.011719-12.625 31.558593-56.796875h76.558594l31.5625 56.804687 7.011719 12.617188-25.253906 45.519531c-.867188.207031-1.734376.457031-2.601563.632812-.335937.0625-.667969.148438-.992187.257813zm77.175781-36.003906c-.382813.210937-.742187.445312-1.085937.710937-2.949219 2.292969-5.972657 4.417969-9.625 6.789063-.398438.199218-.785157.429687-1.152344.683594-2.441406 1.71875-4.972656 3.304687-7.585938 4.746093-1.898437 1.222657-3.894531 2.28125-6.28125 3.566407-2.933594 1.554687-5.859375 3.097656-8.984375 4.574218-2.289062 1.144532-4.511719 2.144532-7.375 3.472656-2.265625.980469-4.6875 1.855469-7.054687 2.765626l16.132812-29.113282h35.308594c-.390625.296875-.738281.582032-1.144531.867188zm72.5625-100.59375c-1.25 4.042968-2.742187 8.121094-4.605469 12.589844-.660156 1.632812-1.371094 3.210937-2.085937 4.824218l-.589844 1.328125c-.867187 2.039063-1.785156 4-2.878906 6.199219-1.484375 3.191406-3.117188 6.308594-4.871094 9.464844-1.089844 2.015625-2.261719 4.027344-3.398437 5.988281-2.707032 4.566406-5.207032 8.460937-7.8125 12.089844-6.621094 9.617187-14.0625 18.644531-22.242188 26.980469-.625.65625-1.265625 1.308593-1.925781 1.96875h-55.164063l-21.695312-39.050782-16.878906-30.375 16.871093-30.371094 21.695313-39.050781h76.554687l30.0625 54.117188c-.332031 1.089843-.644531 2.105469-1.042969 3.296875zm0 0" fill="#2c3e50"/></svg>