<?xml version="1.0" encoding="iso-8859-1"?>
<!-- Generator: Adobe Illustrator 19.0.0, SVG Export Plug-In . SVG Version: 6.00 Build 0)  -->
<svg version="1.1" id="Capa_1" xmlns="http://www.w3.org/2000/svg" xmlns:xlink="http://www.w3.org/1999/xlink" x="0px" y="0px"
	 viewBox="0 0 512 512" style="enable-background:new 0 0 512 512;" xml:space="preserve">
<g>
	<g>
		<path d="M512,256c0-26.285-16.997-48.661-40.572-56.754c0.55-1.126,1.079-2.267,1.563-3.435
			c3.177-7.669,4.693-15.741,4.579-23.798V83.402h-30v25.363C417.728,69.905,377.015,41.307,331,26.312V0h-30v18.622
			c-9.843-1.857-19.859-3.106-30-3.732V0h-30v14.89c-10.141,0.625-20.157,1.875-30,3.732V0h-30v26.312
			C134.989,41.305,94.279,69.9,64.437,108.755V83.402h-30v88.287c-0.16,8.165,1.352,16.35,4.571,24.122
			c0.484,1.168,1.013,2.308,1.563,3.435C16.997,207.339,0,229.715,0,256c0,26.285,16.997,48.66,40.572,56.754
			c-0.55,1.126-1.079,2.266-1.563,3.434c-6.133,14.807-6.133,31.116,0,45.92c1.006,2.429,2.121,4.491,3.104,6.31l0.571,1.062
			c29.921,56.133,79.84,97.153,138.316,116.208V512h30v-18.622c9.843,1.857,19.859,3.106,30,3.732V512h30v-14.89
			c10.141-0.625,20.157-1.875,30-3.732V512h30v-26.312c58.476-19.055,108.396-60.075,138.317-116.209l0.571-1.062
			c0.983-1.819,2.099-3.881,3.103-6.307c6.133-14.807,6.133-31.115,0-45.922c-0.484-1.168-1.013-2.308-1.563-3.434
			C495.003,304.66,512,282.285,512,256z M64.437,172.361c0.062-3.726,0.819-7.445,2.289-10.992c0.413-0.998,1.075-2.221,1.775-3.517
			l0.657-1.221C106.051,87.417,177.645,44.42,256,44.42s149.949,42.997,186.841,112.21l0.66,1.226
			c0.699,1.293,1.36,2.515,1.773,3.515c1.512,3.651,2.275,7.486,2.296,11.322v0.317c-0.021,3.836-0.783,7.671-2.296,11.322
			c-3.066,7.403-8.832,13.169-16.235,16.236c-3.672,1.521-7.519,2.292-11.437,2.292c-11.333-0.001-21.592-6.272-26.774-16.367
			c-26.016-50.675-77.679-82.155-134.828-82.155c-57.15,0-108.813,31.48-134.829,82.155c-5.183,10.095-15.44,16.367-26.77,16.367
			c-3.92,0-7.769-0.771-11.44-2.292c-7.403-3.066-13.169-8.833-16.236-16.236c-1.469-3.546-2.226-7.264-2.288-10.99V172.361z
			 M398.119,282.366c-14.475,4.937-26.723,15.307-33.978,29.44c-15.763,30.704-43.289,52.607-75.586,61.477L341,300.861V168.803
			c9.196,8.992,17.051,19.529,23.141,31.39c7.255,14.132,19.503,24.502,33.979,29.44C394.206,237.597,392,246.544,392,256
			S394.206,274.403,398.119,282.366z M113.881,229.634c14.475-4.937,26.723-15.307,33.978-29.44
			c6.089-11.861,13.944-22.398,23.141-31.391v132.058l52.446,72.422c-32.298-8.87-59.824-30.773-75.587-61.477
			c-7.256-14.133-19.504-24.503-33.978-29.44C117.794,274.403,120,265.456,120,256S117.794,237.597,113.881,229.634z M201,291.139
			v-66.802h110v66.802l-55,75.949L201,291.139z M201,194.337v-46.976c16.696-8.418,35.443-13.024,55-13.024s38.304,4.605,55,13.024
			v46.976H201z M30,256c0-16.542,13.458-30,30-30s30,13.458,30,30s-13.458,30-30,30S30,272.542,30,256z M445.273,350.633
			c-0.413,0.997-1.074,2.219-1.774,3.514l-0.657,1.222C405.949,424.583,334.355,467.58,256,467.58S106.051,424.583,69.159,355.371
			l-0.656-1.22c-0.701-1.296-1.363-2.521-1.777-3.521c-3.066-7.403-3.066-15.557,0-22.96c3.066-7.403,8.833-13.169,16.236-16.236
			c3.671-1.521,7.521-2.292,11.44-2.292c11.33,0,21.587,6.271,26.77,16.366c26.016,50.675,77.68,82.155,134.829,82.155
			s108.813-31.48,134.828-82.155c5.184-10.095,15.441-16.367,26.771-16.367c3.92,0,7.769,0.771,11.44,2.292
			c7.403,3.067,13.169,8.833,16.235,16.236C448.341,335.072,448.341,343.226,445.273,350.633z M452,286c-16.542,0-30-13.458-30-30
			s13.458-30,30-30s30,13.458,30,30S468.542,286,452,286z"/>
	</g>
</g>
<g>
	<g>
		<rect x="241" y="254.34" width="30" height="30"/>
	</g>
</g>
<g>
</g>
<g>
</g>
<g>
</g>
<g>
</g>
<g>
</g>
<g>
</g>
<g>
</g>
<g>
</g>
<g>
</g>
<g>
</g>
<g>
</g>
<g>
</g>
<g>
</g>
<g>
</g>
<g>
</g>
</svg>
