<svg id="Capa_1" enable-background="new 0 0 512 512" height="512" viewBox="0 0 512 512" width="512" xmlns="http://www.w3.org/2000/svg"><g><g><path d="m221.161 35.927c-40.348 18.838-77.324 44.637-108.961 76.273-31.636 31.636-57.435 68.613-76.274 108.96l53.265 74.19 74.191 53.265 132.128-62.909 53.107-122.325-55.11-72.345z" fill="#985626"/><path d="m163.383 348.615 39.287 60.212 88.169 67.243c40.348-18.838 77.325-44.637 108.961-76.273s57.436-68.613 76.274-108.96l-61.435-86.656-66.021-40.799z" fill="#7b441d"/></g><g><path d="m318.024 5.562c-12.495 2.15-24.9 4.917-37.161 8.313-20.526 5.685-40.494 13.083-59.702 22.051l127.456 127.455 42.623-20.99 20.99-42.623-31.802-48.26z" fill="#eeeef0"/><path d="m13.875 280.861c-3.396 12.261-6.163 24.666-8.313 37.161l41.467 63.693 52.74 30.513 44.667-23.034 18.946-40.579-127.455-127.455c-8.968 19.207-16.367 39.175-22.052 59.701z" fill="#eeeef0"/><g fill="#dddde1"><path d="m193.976 506.434c12.496-2.15 24.901-4.918 37.161-8.313 20.526-5.685 40.494-13.083 59.702-22.051l-127.456-127.455-63.614 63.613 35.99 58.217z"/><path d="m348.617 163.381 127.456 127.455c8.968-19.208 16.366-39.175 22.051-59.701 3.396-12.261 6.163-24.665 8.313-37.161l-41.521-62.637-52.686-31.569z"/></g></g><g><path d="m11.412 476.076 4.903 19.605 59.834-38.2 23.621-45.254-94.208-94.205c-9.011 52.364-7.082 106.328 5.85 158.054z" fill="#7b441d"/><path d="m35.922 500.584c30.457 7.615 61.685 11.416 92.911 11.416 21.805 0 43.609-1.861 65.143-5.566l-94.207-94.206-83.454 83.454z" fill="#633414"/><path d="m476.078 11.412c-51.724-12.932-105.689-14.861-158.054-5.85l94.207 94.206 46.998-18.709 36.457-64.745z" fill="#7b441d"/><path d="m412.231 99.768 94.207 94.206c9.011-52.364 7.082-106.328-5.849-158.055l-4.903-19.605z" fill="#633414"/></g><g><path d="m298.474 192.422-31.075-31.075-21.21 21.209 31.104 31.104-21.182 21.239-31.133-31.132-21.209 21.209 31.161 31.161-21.182 21.24-31.19-31.19-21.21 21.209 31.219 31.219-39.539 39.645 10.355 10.355 103.434-81.801 81.801-103.433-10.605-10.605z" fill="#dddde1"/><path d="m348.618 163.381-185.235 185.234 10.855 10.855 39.538-39.646 31.326 31.326 21.21-21.21-31.355-31.354 21.183-21.239 31.383 31.383 21.209-21.21-31.411-31.411 21.182-21.24 31.44 31.441 21.21-21.21-31.47-31.469 39.539-39.645z" fill="#b8b8be"/></g></g></svg>