<?xml version="1.0" encoding="iso-8859-1"?>
<!-- Generator: Adobe Illustrator 18.1.1, SVG Export Plug-In . SVG Version: 6.00 Build 0)  -->
<svg version="1.1" id="Capa_1" xmlns="http://www.w3.org/2000/svg" xmlns:xlink="http://www.w3.org/1999/xlink" x="0px" y="0px"
	 viewBox="0 0 19.738 19.738" style="enable-background:new 0 0 19.738 19.738;" xml:space="preserve">
<g>
	<path style="fill:#010002;" d="M18.18,19.738h-2c0-3.374-2.83-6.118-6.311-6.118s-6.31,2.745-6.31,6.118h-2
		c0-4.478,3.729-8.118,8.311-8.118C14.451,11.62,18.18,15.26,18.18,19.738z"/>
	<path style="fill:#010002;" d="M9.87,10.97c-3.023,0-5.484-2.462-5.484-5.485C4.385,2.461,6.846,0,9.87,0
		c3.025,0,5.486,2.46,5.486,5.485S12.895,10.97,9.87,10.97z M9.87,2C7.948,2,6.385,3.563,6.385,5.485S7.948,8.97,9.87,8.97
		c1.923,0,3.486-1.563,3.486-3.485S11.791,2,9.87,2z"/>
</g>
<g>
</g>
<g>
</g>
<g>
</g>
<g>
</g>
<g>
</g>
<g>
</g>
<g>
</g>
<g>
</g>
<g>
</g>
<g>
</g>
<g>
</g>
<g>
</g>
<g>
</g>
<g>
</g>
<g>
</g>
</svg>
